<?xml version="1.0" encoding="utf-8"?>
<!-- Generator: Adobe Illustrator 23.0.3, SVG Export Plug-In . SVG Version: 6.00 Build 0)  -->
<svg version="1.1" id="Capa_1" xmlns="http://www.w3.org/2000/svg" xmlns:xlink="http://www.w3.org/1999/xlink" x="0px" y="0px"
	 viewBox="0 0 512 512" style="enable-background:new 0 0 512 512;" xml:space="preserve">
<style type="text/css">
	.st0{fill:#303C42;}
	.st1{fill:#6D4C41;}
	.st2{opacity:0.2;fill:#FFFFFF;enable-background:new    ;}
	.st3{opacity:0.1;enable-background:new    ;}
	.st4{fill:#FBC02D;}
	.st5{fill:#FFA726;}
	.st6{fill:url(#SVGID_1_);}
	.st7{fill:url(#SVGID_2_);}
</style>
<path class="st0" d="M395.8,76.1c5.9-5.8,9.5-13.8,9.5-22.7V32c0-17.6-14.4-32-32-32H138.7c-17.6,0-32,14.4-32,32v21.3
	c0,8.9,3.6,16.9,9.5,22.7C83.6,99.6,64,137.1,64,178.2V448c0,35.3,28.7,64,64,64h256c35.3,0,64-28.7,64-64V178.2
	C448,137.1,428.4,99.6,395.8,76.1z"/>
<path class="st1" d="M128,32c0-5.9,4.8-10.7,10.7-10.7h234.7c5.9,0,10.7,4.8,10.7,10.7v21.3c0,5.9-4.8,10.7-10.7,10.7H138.7
	c-5.9,0-10.7-4.8-10.7-10.7V32z"/>
<path class="st2" d="M160,53.3V32c0-5.9,3.6-10.7,8-10.7h-29.3c-5.9,0-10.7,4.8-10.7,10.7v21.3c0,5.9,4.8,10.7,10.7,10.7H168
	C163.6,64,160,59.2,160,53.3z"/>
<path class="st3" d="M373.3,21.3H344c4.4,0,8,4.8,8,10.7v21.3c0,5.9-3.6,10.7-8,10.7h29.3c5.9,0,10.7-4.8,10.7-10.7V32
	C384,26.1,379.2,21.3,373.3,21.3z"/>
<path class="st4" d="M426.7,448c0,23.5-19.1,42.7-42.7,42.7H128c-23.5,0-42.7-19.1-42.7-42.7V178.2c0-39.2,21.4-74.6,55.9-92.9
	h229.5c34.6,18.3,55.9,53.6,55.9,92.9V448z"/>
<path class="st2" d="M117.3,448V178.2c0-39.2,17.3-74.6,45.4-92.9h-21.5c-34.6,18.3-55.9,53.6-55.9,92.9V448
	c0,23.5,19.1,42.7,42.7,42.7h24C132.9,490.7,117.3,471.5,117.3,448z"/>
<path class="st3" d="M370.8,85.3h-21.5c28.1,18.3,45.4,53.6,45.4,92.9V448c0,23.5-15.5,42.7-34.7,42.7h24
	c23.5,0,42.7-19.1,42.7-42.7V178.2C426.7,139,405.3,103.6,370.8,85.3z"/>
<path class="st0" d="M350.5,229.2c-1.9-3.2-5.4-5.2-9.1-5.2h-58l-28.9-48.2c-1.9-3.2-5.4-5.2-9.1-5.2h-64c-3.8,0-7.3,2-9.2,5.2
	l-32,53.9c-2,3.4-2,7.6,0,11l28.7,47.3l-28.7,48.4c-2,3.4-2,7.6,0,11l32,52.8c1.9,3.2,5.4,5.1,9.1,5.1h64c3.8,0,7.2-2,9.1-5.2
	l28.9-48.2h58c3.8,0,7.2-2,9.1-5.2l32-53.3c2-3.4,2-7.6,0-11L350.5,229.2z"/>
<g>
	<polygon class="st5" points="187.4,192 239.3,192 264.9,234.7 239.3,277.3 187.3,277.3 161.8,235.1 	"/>
	<polygon class="st5" points="239.3,384 187.3,384 161.8,341.8 187.4,298.7 239,298.7 264.9,341.4 	"/>
	<polygon class="st5" points="335.3,330.7 283.4,330.7 257.9,288.2 283.4,245.3 335.3,245.3 360.9,288 	"/>
</g>
<g>
	<polygon class="st2" points="168.6,245.8 194.2,202.7 245.7,202.7 239.3,192 187.4,192 161.8,235.1 187.3,277.3 187.7,277.3 	"/>
	<polygon class="st2" points="168.6,352.5 194.2,309.3 245.5,309.3 239,298.7 187.4,298.7 161.8,341.8 187.3,384 187.7,384 	"/>
	<polygon class="st2" points="264.7,298.9 290.2,256 341.7,256 335.3,245.3 283.4,245.3 257.9,288.2 283.4,330.7 283.8,330.7 	"/>
</g>
<linearGradient id="SVGID_1_" gradientUnits="userSpaceOnUse" x1="-1223.0388" y1="1180.2825" x2="-1212.0756" y2="1191.2457" gradientTransform="matrix(21.3333 0 0 21.3333 26270.625 -24933.9414)">
	<stop  offset="0" style="stop-color:#000000;stop-opacity:0.1"/>
	<stop  offset="1" style="stop-color:#000000;stop-opacity:0"/>
</linearGradient>
<path class="st6" d="M384,288c0,1.9-0.5,3.8-1.5,5.5l-32,53.3c-1.9,3.2-5.4,5.2-9.1,5.2h-58l-28.9,48.2c-1.9,3.2-5.4,5.2-9.1,5.2
	h-64c-3.7,0-7.2-1.9-9.1-5.1l90.5,90.5H384c23.5,0,42.7-19.1,42.7-42.7V330.7L384,288z M283.4,224h19.4l-51.1-51.1l-0.1,0.2
	c1.1,0.8,2.2,1.6,2.9,2.8L283.4,224z"/>
<linearGradient id="SVGID_2_" gradientUnits="userSpaceOnUse" x1="-1229.4106" y1="1176.324" x2="-1208.4174" y2="1186.113" gradientTransform="matrix(21.3333 0 0 21.3333 26270.625 -24933.9414)">
	<stop  offset="0" style="stop-color:#FFFFFF;stop-opacity:0.2"/>
	<stop  offset="1" style="stop-color:#FFFFFF;stop-opacity:0"/>
</linearGradient>
<path class="st7" d="M395.8,76.1c5.9-5.8,9.5-13.8,9.5-22.7V32c0-17.6-14.4-32-32-32H138.7c-17.6,0-32,14.4-32,32v21.3
	c0,8.9,3.6,16.9,9.5,22.7C83.6,99.6,64,137.1,64,178.2V448c0,35.3,28.7,64,64,64h256c35.3,0,64-28.7,64-64V178.2
	C448,137.1,428.4,99.6,395.8,76.1z"/>
</svg>
